<?xml version="1.0" encoding="utf-8"?>
<!-- Generator: Adobe Illustrator 19.1.0, SVG Export Plug-In . SVG Version: 6.00 Build 0)  -->
<svg version="1.1" id="Layer_1" xmlns="http://www.w3.org/2000/svg" xmlns:xlink="http://www.w3.org/1999/xlink" x="0px" y="0px"
	 viewBox="0 0 445.7 91.5" style="enable-background:new 0 0 445.7 91.5;" xml:space="preserve">
<style type="text/css">
	.st0{fill:url(#SVGID_2_);}
	.st1{fill:url(#SVGID_4_);}
	.st2{fill:url(#SVGID_5_);}
	.st3{fill:#454545;}
</style>
<g>
	<g>
		<g>
			<g>
				<g>
					
						<linearGradient id="SVGID_2_" gradientUnits="userSpaceOnUse" x1="138.9508" y1="-6.8918" x2="302.4131" y2="-6.8918" gradientTransform="matrix(1 0 0 -1 0 38.0105)">
						<stop  offset="1" style="stop-color:#2BACE2"/>
						<stop  offset="1" style="stop-color:#2BACE2"/>
					</linearGradient>
					<path id="SVGID_1_" class="st0" d="M292.6,56.9h-11.2c-2.8,0-4.8,0.6-6.4,1.7c-1.6,1.1-2.2,2.8-2.2,5c0,4.4,2.8,6.6,8.6,6.6
						c2,0,3.7-0.2,5-0.5c1.2-0.5,2.7-1.1,3.7-2.2c1.2-1.2,2-3.7,2-7v-3.7h0.5C292.6,56.8,292.6,56.9,292.6,56.9z M292.9,77.8v-4.2
						c-1.7,1.7-3.4,3.1-5.5,3.7c-2,0.6-4.2,1.1-7.2,1.1c-2.8,0-5.3-0.5-7.5-1.1c-2.2-0.6-3.9-1.7-5.3-3.3c-2.3-2.7-3.7-5.9-3.7-10.1
						c0-2.7,0.6-5,2-7c1.2-2,3.1-3.7,5.5-4.8c2.3-1.1,5.5-1.7,9.1-1.7h12.5v-3.3c0-3.1-0.9-5.3-2.3-6.6c-1.6-1.2-4.2-2.2-8-2.2
						c-2.7,0-4.7,0.5-6.1,1.1c-1.4,0.6-2.8,1.7-4.2,3.4l-6.1-5.9c2.2-2.7,4.7-4.4,7-5.3c2.7-1.1,5.9-1.6,9.8-1.6
						c13,0,19.5,5.5,19.5,16.2v31.5H293l0,0H292.9z M256,69.7h3.9v8.1h-5.8c-2.8,0-5.3-0.6-7-1.7c-2-1.2-3.4-2.8-4.4-4.8
						c-0.9-2-1.6-4.2-1.6-6.6V38.5h-5.2v-7.2h5.3V17.1h9.4v14.2h9.2v7.2h-9.2v25.4C250.7,68,252.5,69.7,256,69.7z M220.6,56.9h-11.1
						c-2.8,0-4.8,0.6-6.4,1.7c-1.6,1.1-2.2,2.8-2.2,5c0,4.4,2.8,6.6,8.6,6.6c2,0,3.7-0.2,5-0.5c1.2-0.5,2.7-1.1,3.7-2.2
						c1.2-1.2,2-3.7,2-7v-3.7h0.3V56.9z M220.9,77.8v-4.2c-1.7,1.7-3.4,3.1-5.5,3.7s-4.2,1.1-7.2,1.1c-2.8,0-5.3-0.5-7.5-1.1
						c-2.2-0.6-3.9-1.7-5.3-3.3c-2.3-2.7-3.7-5.9-3.7-10.1c0-2.7,0.6-5,2-7c1.2-2,3.1-3.7,5.5-4.8c2.3-1.1,5.5-1.7,9.1-1.7h12.5
						v-3.3c0-3.1-0.9-5.3-2.3-6.6c-1.6-1.2-4.2-2.2-8-2.2c-2.7,0-4.7,0.5-6.1,1.1c-1.6,0.6-2.8,1.7-4.2,3.4l-6.1-5.9
						c2.2-2.7,4.7-4.4,7-5.3c2.7-1.1,5.9-1.6,9.8-1.6c13,0,19.5,5.5,19.5,16.2v31.5h-9.4l0,0H220.9z M176.1,35.2
						c-0.2-2-0.5-3.9-0.9-5.9c-0.5-1.7-1.2-3.3-2.3-4.7c-2.7-3.1-6.6-4.7-11.2-4.7h-12.5v48.4h12.3c4.8,0,8.6-1.6,11.2-4.4
						c1.6-1.7,2.7-4.2,2.8-7c0.5-3.1,0.6-7.2,0.6-13C176.1,40.4,176.1,37.4,176.1,35.2z M185.8,56.8c-0.2,2.7-0.9,5.3-2,8
						c-0.9,2.7-2.3,4.8-4.4,6.9c-4.2,4.2-9.8,6.1-17.2,6.1H139V11.3h23.3c7.2,0,13,2,17.2,6.1c2,2,3.4,4.2,4.4,6.6s1.6,5,2,7.5
						c0.2,2.7,0.5,5.5,0.5,9.1v3.3v3.3C186.3,51,186.3,54.1,185.8,56.8z"/>
				</g>
			</g>
			<g>
				<g>
					
						<linearGradient id="SVGID_4_" gradientUnits="userSpaceOnUse" x1="311.7805" y1="-6.5795" x2="445.7353" y2="-6.5795" gradientTransform="matrix(1 0 0 -1 0 38.0105)">
						<stop  offset="1" style="stop-color:#454545"/>
						<stop  offset="1" style="stop-color:#2BACE2"/>
					</linearGradient>
					<path id="SVGID_3_" class="st1" d="M440.9,47.7c-0.2-0.9-0.6-2.2-1.1-3.7c-0.9-2.3-2.3-4.2-4.7-5.5s-4.4-2-7-2s-4.8,0.6-7,2
						c-2.2,1.4-3.7,3.3-4.7,5.5c-0.6,1.6-0.9,2.7-1.1,3.7c-0.2,1.1-0.5,2.7-0.5,4.7h26.4C441.1,50.4,441.1,48.6,440.9,47.7z
						 M414.8,56.3c0,5.8,1.2,10.1,3.7,13.1c2.3,3.1,6.1,4.7,10.8,4.7c2.7,0,4.8-0.5,6.6-1.2c1.7-0.9,3.7-2.2,5.8-4.2l3.4,2.8
						c-2.3,2.3-4.8,4.2-7.2,5.3c-2.3,1.1-5.5,1.6-9.1,1.6c-4.2,0-7.7-0.9-10.5-2.7c-2.8-1.7-5-4.4-6.4-7.7
						c-1.6-3.4-2.2-7.7-2.2-12.6c0-3.7,0.5-6.9,1.2-9.7c0.9-2.8,2-5.3,3.4-7.2c1.6-2,3.4-3.4,5.8-4.7c2.3-1.2,4.8-1.6,7.5-1.6
						c2.8,0,5.3,0.5,7.5,1.6c2.2,0.9,4.2,2.3,5.8,4.4c1.6,2,2.8,4.2,3.4,6.9c0.9,2.7,1.2,5.8,1.2,9.2v2.2h-30.9L414.8,56.3
						L414.8,56.3z M399.8,73.6h3.3v4.2h-4.2c-2.2,0-4.2-0.5-5.9-1.6c-1.6-1.1-2.8-2.3-3.7-4.2c-0.9-1.7-1.2-3.7-1.2-6.1V36.3h-6.1
						v-3.4h6.1V18.7h4.8v14.2H403v3.4h-10.1V66C392.8,71,395.3,73.6,399.8,73.6z M373.6,77.8h-4.8v-45h4.8V77.8z M368.3,17.3v-5.9
						h5.9v5.9H368.3z M346.1,19.5c-3.1-2.8-6.9-4.2-11.2-4.2c-2.3,0-4.7,0.5-6.9,1.2c-2.2,0.8-4.2,2.2-5.8,3.7
						c-1.1,1.1-2.2,2.3-2.8,3.7c-0.6,1.4-1.1,2.8-1.6,4.8c-0.5,2-0.6,4.2-0.6,6.6s-0.2,5.5-0.2,9.1c0,5.3,0,9.2,0.2,12
						c0.2,2.8,0.6,5,1.2,7c0.6,2,1.7,3.7,3.3,5c1.7,1.7,3.4,2.8,5.8,3.7c2.2,0.9,4.4,1.2,6.9,1.2c2.8,0,5.8-0.6,8.1-1.7
						c2.3-1.1,4.4-2.8,6.1-5.3c1.7-2.2,2.8-4.8,3.4-8h4.8c-0.6,3.9-2.2,7.5-4.2,10.3c-2,2.8-4.7,5-8,6.6c-3.1,1.6-6.6,2.3-10.5,2.3
						c-3.1,0-6.1-0.6-9.1-1.7c-3-1.1-5.5-2.8-7.5-5c-2-2-3.3-3.9-4.2-6.1c-0.9-2.2-1.2-4.7-1.6-7.5c-0.2-2.8-0.2-7.2-0.2-13.1
						s0-10.3,0.2-13.1s0.6-5.3,1.6-7.5c0.9-2.2,2.2-4.2,4.2-6.1c2.2-2.2,4.7-3.7,7.5-5c3.1-1.1,6.1-1.7,9.4-1.7
						c3.9,0,7.5,0.9,10.5,2.3c3.1,1.6,5.8,3.7,8,6.6c2,2.8,3.4,6.4,4.2,10.3h-5C351.4,25.5,349.3,22.1,346.1,19.5z"/>
				</g>
			</g>
		</g>
		
			<linearGradient id="SVGID_5_" gradientUnits="userSpaceOnUse" x1="0" y1="45.9098" x2="114.5433" y2="45.9098" gradientTransform="matrix(1 0 0 1 0 -0.22)">
			<stop  offset="1" style="stop-color:#2BACE2"/>
			<stop  offset="1" style="stop-color:#004A69"/>
		</linearGradient>
		<path class="st2" d="M0,68.5c0.8,0.2,1.6,0.3,2.5,0.5c41.5,8.3,103.4-2.7,111.3-22.8c6.2-16.2-28.6-27.8-69.3-26.4
			c-0.8,0-1.6,0-2.3,0.2c21.7,2.2,41.2,10.8,33.4,24.2C67,58.8,30.8,68.6,0,68.5"/>
		<path class="st3" d="M90.9,68.3C83.7,112,45.9,86,37,55.5C24,24,35.6-16.6,67.9,7.1C41.2-5.1,38.4,30.4,49.8,55.7
			c9.5,21.1,30.1,34.7,40.1,13C90.4,68.5,90.7,68.5,90.9,68.3z"/>
	</g>
</g>
</svg>
